/* XPM */
static char *grassfeeder[] = {
/* columns rows colors chars-per-pixel */
"64 58 49 1 ",
"  c black",
". c #330000",
"X c #003300",
"o c #333300",
"O c gray20",
"+ c #663300",
"@ c #663333",
"# c #336600",
"$ c #336633",
"% c #666600",
"& c #666633",
"* c #333366",
"= c #663366",
"- c #336666",
"; c gray40",
": c #993333",
"> c #996633",
", c #996666",
"< c #CC6666",
"1 c #339900",
"2 c #339933",
"3 c #669900",
"4 c #669933",
"5 c #66CC00",
"6 c #66CC33",
"7 c #339966",
"8 c #669966",
"9 c #66CC66",
"0 c #999900",
"q c #999933",
"w c #99CC00",
"e c #99CC33",
"r c #999966",
"t c #CC9966",
"y c #99CC66",
"u c #666699",
"i c #996699",
"p c #669999",
"a c #66CC99",
"s c #6699CC",
"d c gray60",
"f c #CC9999",
"g c #99CC99",
"h c #CCCC99",
"j c #CCFF99",
"k c #9999CC",
"l c #CC99CC",
"z c #99CCCC",
"x c gray80",
/* pixels */
"gp;;88888pp;;;;;;ddkkkdghhjjhyyey4444yyyyhjhyy6444yhfffhyrryhhyg",
"dp8;;;;;;8p8;8;;;dkkdddghjjhyy4yyy4444698yyyyyyrrdhfff<,>&@@@>ry",
"d888;&;8&;88;;;;8dddddrrghhy8rgdrrryq44448yghhhhxxf<>@@@+@&@@+@r",
"d888&;;84;;;;;;;8ddddr88yyr,,,,,,>>,rr8rrtffffhhhf,@@+@@@@@@@@@,",
"d848;;;88;;;;;;;;88dddr88,@>,,,,,,,,<tffttfffffff,@@@@@+++++@@o>",
"d888;;;88;-;;;&&$&8rdddr,,,,,,,,,,,>,,ff<ffffffft@@@@@@@+@@@@@@r",
"pp8;;;;;;;$$$$$$$$&88r,,,,,,,,,,,,>>,,,<tfttffff@@@@@@@@@@@@@@,f",
"puu;;;;;;;;&&$$$&&&;8;,,,,,,,,,,,&,>,,,,,fttfft@@@@&@@@@@+@@@@tf",
"puu;;rr,,,,;;;;;;;;;,;,<<,,<,,;;=@@>>,,,idftf,@@@@&>@@@@@@@@@fff",
"pu,,,>&@@&,,;;;;p8;ddr,,,,,,,,@@@@@@@&,,,ff,>,@@@&>>@@@@@@@@,fff",
",&@@@+@@@@@&,;;;p8dd,,,,>>,,,,,@@@@@@&,,,fff@&@@&>>@@@@@@@@>ffff",
"@@@@@@@@@oo@@,,;8ddd,@@@@&,,,,,,@@@@@@;&,ttf,&@@&,>&@&>@@@@fffff",
"@@@@@@@@@+@@@@>,,r,,@;@@@@@,,,,,@@@@@@,@>t,@d&@&&&&&>&@@@&tfffff",
"@@@@@@@@++@@@@@&@&@@@;;@@@@@,,,;@@@@@@>>,f;*;@@&&@&&@&@@>fffffft",
"@@@@>@@@++@@@@@@@@@@,,@@ooO@@;,;;;;&@>,,,x,O,&@@&&@@@>,tffffffff",
"@@@@>@@@@@@@&;&@@@&@;OO@oo.O@@;,,,,,>>,&@,f,,&@&,,rttttfffffffff",
";@@@@@@@@@@@&@@&@@@OO O@@Ooo@@;,,,,,,,,,,,,ft&,dffftttttffffffff",
"u;@@@>>>@@@&@@@@@@OO@  ,&o.o@@;;,,,,,,,,,,,,t,ffttttttttffffffff",
";;;&@@@@@@&@@@@O@@OO@O@@OO@O@@@;,,,,,,,,,,,,,tttttfftttftfffffff",
";;;;;@@@@@@@@@O@@ooOO@@OO@@@@@@@;,,,,,,,,,,,,<<tttfffttfftffffff",
";--;;;;@@@@@@@@&@Oooo@@@O@@@@@@@;,,,,,<,,,,,t<<tttftfttffftfffff",
";;-;-;;;;;;;;888;;&@oooo@@@O@@;@,,,,,,<,,,,,t<<<ttffttftfffttfff",
"u;-;;-;;;8ppp8;;;;rr;@oo@@OOo@&,,,,,,,ff,,,,tt<<<tffttfttfftttff",
"u;-;--;dpppp8;;;;;;8r&oo@++@+@@,,tt,ffflf,,,tt<<<ttfttttttfft<tf",
"u;----;dppp888;;;;88r;o+ooo++@,ddfffffxx,ftttt<ttttffttttttfft<t",
"u;;;--;dpp8;888888dddr++o+o+o,@dklllllf@@ffttt<ttttfftttttttfft<",
";;-;;;pdp8--;;;;;8dddd@+o@@+@,@O;ddkdf;@,tf,tt<tttttftttttt<ttf,",
"pu--;ppd8----;-;;;;ddd&+o@@@&,;;O;,diddddfftt<<tttttftttttft<fff",
"pp;;;ppp;-7--;;$$$;;dd;+o++@,,;;;;ii;,fxltfft<,tttttttttt<tttfff",
"pp;dpppp;7-7-;;$$;;;;;;@++o@,,,id,;;;;;d,rfxt,,tttttttttt<tttftt",
";;dpp88p8877-;848888r;,@++o&,r,;;;;&OO&&O&rxf,,,tffft<ttt<t<t<,t",
";d88p;;d8888;88888pddr,&@+o,d,;OOOO$&;;$$44rf,ddrfftt<<tt<,<<<tt",
";;;p;-;p8888888888888,,,@+@d;OoXo$8&@&&$84zgddd,<tttt<<<t<,><,t,",
";;88--;;;$2788884&&48,,,@+@&@XX-8p;Oo#o88pzsdt<<<<ttt<,<<<,>,,,d",
";88--*;;&$$$$&888888,,,&@+ooO-OOdd#####442pzzr<<<<ttt<,,<<,>>>rg",
"8p;---;;4$$$$$&888rd,,,@@@o3;888841#oo&8888gzg<<,<ttt,,,,<,>>,g6",
"8;;--$-;;$$$$$$&8ddr,,&@@+%3o-&op&&$oo&8p87dggtt,,ttt,>>>><>>865",
"8;--$$4;;$$$##$&8gg,,;&@@@&%o-&o;oo$8$48p&$88zd<,,ttt,@>>>>>845w",
"84&$$$4;$$$$$$44rdg,,&@@@&&&o$$o;oo;p#888&28,zg<<><tt>+:>>>r8355",
"-&4424$;;$$$$$88rdr,,@@@@4%4o&Oo$.o$8#48;444&dz<<,<tt>+@:>,88355",
"-*$&44$;;$$$-888rr,,&@@@@3%3o4o.$.ooO$48>444&,zr<,<tt>+@:>888450",
"*OO$44$;;$#$;888rr,,@@@@&5%3o4ooO.ooo222>43%&>gr<,<tt>++@&88865>",
"OOO$$$$88$$$88888r>&@@@&&333$&Ooo ooo4414&1&&>8d,,<<t>++&888665&",
"OO$;&OO;8;-;88888>>@@@&&433%&OO. .oo$4413&1&&48d,>,<<>++&88r654@",
"OO$&$OO;pp8;;88;;&&@@@@;333%4oo...o@&3&13q1&@44r,>,<<>+&884r63&3",
"OO$&$$$8pp8&8888;&@@@&@>53344oo..oo@33>#341&@&4r,>,<<>&444>y44&4",
"OO$$$$;8pp888888&@@@@@&&53344oo..o+&44>%333&&@3r,>>,rq344&ry4&4&",
"OO$$$$8888r84888&@@@@@@45336&oo.oo@&4d>>335>&&3>,&&q44444&yy448d",
"OO$$$$8888y84488@@@@@@@35434&...oo@&44&>3334&434qr;q6444+qg94agz",
"$$-$$$8884yy488;@@@@@@@55438O.ooo##44&%&411##12348p8q44&&6g94444",
"888$$-88848y888&@@@@@@&53444o.o####1#&&%########148,r4&%46g44&@%",
"8888;888888g888@@@o@oO453444..o#o##1$&&&&13&####$4;zzg&+46y44+@%",
"y888888pdpgg888@@ooooow5348&..o.oo#1#&#&&#3#######8gg5%+e494&@@3",
"r888888ppppapp8++ooooow5448$.....o##%%&&&##&&$#$&488454&448&@@;4",
"888884488888papooooo.ow5488o ....o3o&&,,@@1&&4###1##3334494@&8;3",
"dp888$4884888ppoo.oo.%w5488 ..oOo@4o&>,&####$##2$###333444&@8&o3",
"8gd888844444888o.....&5548& .Oo..o&o&,,+######8$%&31334444&;&+@4",
"8dz8;8888&44448&.....&5548O Oooo.o$O&,&oo+&34&d$+&3113&484;&@@&4"
};
